<svg width="1000" height="1000" viewBox="0 0 1000 1000" fill="none" xmlns="http://www.w3.org/2000/svg">
<g clip-path="url(#clip0_2_253)">
<path d="M1000 0H0V1000H1000V0Z" fill="white"/>
<g opacity="0.15">
<path opacity="0.15" d="M813 237V693.9C813 724.2 800.6 748.8 785.2 748.8H543C527.7 748.8 515.2 724.2 515.2 693.9V335" stroke="#474747" stroke-width="6" stroke-miterlimit="10" stroke-linecap="round" stroke-linejoin="round"/>
<path opacity="0.15" d="M203 748.7H865" stroke="#474747" stroke-width="6" stroke-miterlimit="10" stroke-linecap="round" stroke-linejoin="round"/>
<path opacity="0.15" d="M515.2 454H813" stroke="#474747" stroke-width="6" stroke-miterlimit="10" stroke-linecap="round" stroke-linejoin="round"/>
<path opacity="0.15" d="M515.2 666.9H813" stroke="#474747" stroke-width="6" stroke-miterlimit="10" stroke-linecap="round" stroke-linejoin="round"/>
<path opacity="0.15" d="M780.1 653.4H759.8C753.8 653.4 748.9 648.5 748.9 642.5V486.3C748.9 480.3 753.8 475.4 759.8 475.4H780.1C786.1 475.4 791 480.3 791 486.3V642.5C791 648.5 786.1 653.4 780.1 653.4Z" stroke="#474747" stroke-width="6" stroke-miterlimit="10" stroke-linecap="round" stroke-linejoin="round"/>
<path opacity="0.15" d="M721 653.4H700.7C694.7 653.4 689.8 648.5 689.8 642.5V486.3C689.8 480.3 694.7 475.4 700.7 475.4H721C727 475.4 731.9 480.3 731.9 486.3V642.5C731.9 648.5 727.1 653.4 721 653.4Z" stroke="#474747" stroke-width="6" stroke-miterlimit="10" stroke-linecap="round" stroke-linejoin="round"/>
<path opacity="0.15" d="M780.1 440.4H759.8C753.8 440.4 748.9 435.5 748.9 429.5V273.3C748.9 267.3 753.8 262.4 759.8 262.4H780.1C786.1 262.4 791 267.3 791 273.3V429.5C791 435.5 786.1 440.4 780.1 440.4Z" stroke="#474747" stroke-width="6" stroke-miterlimit="10" stroke-linecap="round" stroke-linejoin="round"/>
<path opacity="0.15" d="M734 409.1V429.4C734 435.4 729.1 440.3 723.1 440.3H566.9C560.9 440.3 556 435.4 556 429.4V409.1C556 403.1 560.9 398.2 566.9 398.2H723.1C729.1 398.2 734 403.1 734 409.1Z" stroke="#474747" stroke-width="6" stroke-miterlimit="10" stroke-linecap="round" stroke-linejoin="round"/>
<path opacity="0.15" d="M734 362.3V375.6C734 381.6 729.1 386.5 723.1 386.5H576.6C570.6 386.5 565.7 381.6 565.7 375.6V362.3C565.7 356.3 570.6 351.4 576.6 351.4H723.1C729.1 351.4 734 356.3 734 362.3Z" stroke="#474747" stroke-width="6" stroke-miterlimit="10" stroke-linecap="round" stroke-linejoin="round"/>
<path opacity="0.15" d="M613 650.6L599.2 644.8C595.4 643.2 593.5 638.8 595.1 635L645.6 513.8C647.2 510 651.6 508.1 655.4 509.7L669.2 515.5C673 517.1 674.9 521.5 673.3 525.3L622.8 646.5C621.2 650.4 616.8 652.2 613 650.6Z" stroke="#474747" stroke-width="6" stroke-miterlimit="10" stroke-linecap="round" stroke-linejoin="round"/>
<path opacity="0.15" d="M147.4 460.7H226.7V499.4H147.4" stroke="#474747" stroke-width="6" stroke-miterlimit="10" stroke-linecap="round" stroke-linejoin="round"/>
<path opacity="0.15" d="M306.1 499.4H226.7" stroke="#474747" stroke-width="6" stroke-miterlimit="10" stroke-linecap="round" stroke-linejoin="round"/>
<path opacity="0.15" d="M226.7 460.7H257.1" stroke="#474747" stroke-width="6" stroke-miterlimit="10" stroke-linecap="round" stroke-linejoin="round"/>
<path opacity="0.15" d="M266.3 499.4H187V538.1H266.3V499.4Z" stroke="#474747" stroke-width="6" stroke-miterlimit="10" stroke-linecap="round" stroke-linejoin="round"/>
<path opacity="0.15" d="M159.7 538.3H226.7V576.9H201" stroke="#474747" stroke-width="6" stroke-miterlimit="10" stroke-linecap="round" stroke-linejoin="round"/>
<path opacity="0.15" d="M306 538.3H226.7V577H306V538.3Z" stroke="#474747" stroke-width="6" stroke-miterlimit="10" stroke-linecap="round" stroke-linejoin="round"/>
<path opacity="0.15" d="M434.7 315.8H311.6V415.6H434.7V315.8Z" stroke="#474747" stroke-width="6" stroke-miterlimit="10" stroke-linecap="round" stroke-linejoin="round"/>
<path opacity="0.15" d="M328.6 392.5L351.2 359.8L374.5 388.7" stroke="#474747" stroke-width="6" stroke-miterlimit="10" stroke-linecap="round" stroke-linejoin="round"/>
<path opacity="0.15" d="M365.9 378.1L397.4 347.5L419.8 392.5" stroke="#474747" stroke-width="6" stroke-miterlimit="10" stroke-linecap="round" stroke-linejoin="round"/>
<path opacity="0.15" d="M357.7 367.9C359.3 363.2 363.7 359.8 368.9 359.8C373.2 359.8 377 362.1 379.1 365.6" stroke="#474747" stroke-width="6" stroke-miterlimit="10" stroke-linecap="round" stroke-linejoin="round"/>
</g>
<path d="M472.4 622.1L476.8 613.1L486.4 615.8L490.8 606.8L500.5 609.5L504.9 600.5L514.6 603.2L519 594.2L528.7 596.9L533.1 587.9L542.8 590.6L547.2 581.6L556.9 584.3L561.3 575.3L571 578L575.4 569L585.1 571.7L589.5 562.7L599.2 565.4L603.6 556.4L613.3 559.1L617.7 550.1L611.9 542.3C604.8 532.7 592 529.3 581.1 534.2L453.3 591.8L472.4 622.1Z" fill="#D2DDE1"/>
<path d="M472.4 622.1L476.8 613.1L486.4 615.8L490.8 606.8L500.5 609.5L504.9 600.5L514.6 603.2L519 594.2L528.7 596.9L533.1 587.9L542.8 590.6L547.2 581.6L556.9 584.3L561.3 575.3L571 578L575.4 569L585.1 571.7L589.5 562.7L599.2 565.4L603.6 556.4L613.3 559.1L617.7 550.1L611.9 542.3C604.8 532.7 592 529.3 581.1 534.2L453.3 591.8L472.4 622.1Z" stroke="#474747" stroke-width="6" stroke-miterlimit="10" stroke-linecap="round" stroke-linejoin="round"/>
<path d="M409.9 656.9L335.2 671.9L273.1 362C315 373.4 347.5 406.4 358.5 448.4L409.9 656.9Z" fill="#BACED3"/>
<path d="M448.9 581.7C437.7 592.3 428 585.8 428.2 576.9C428.6 562.6 436.1 547.6 444.1 536.2C448.8 529.4 460.9 517.2 467.6 522.5L484 450.3L457.8 416.1L453 424.3C441.5 444.1 431.3 464.5 422.4 485.6C413.4 506.8 406.1 528.6 400.1 550.9L373.1 651.7L420.3 666.9C420.3 666.9 435.9 650.2 440.5 639.8C453.1 611.2 459.2 585.5 459.2 585.5L448.9 581.7Z" fill="#D2DDE1"/>
<path d="M448.9 581.7C437.7 592.3 428 585.8 428.2 576.9C428.6 562.6 436.1 547.6 444.1 536.2C448.8 529.4 460.2 519.9 467.6 522.5L484 450.3L457.8 416.1L453 424.3C441.5 444.1 431.3 464.5 422.4 485.6C413.4 506.8 406.1 528.6 400.1 550.9L373.1 651.7L420.3 666.9C420.3 666.9 435.9 650.2 440.5 639.8C453.1 611.2 459.2 585.5 459.2 585.5L448.9 581.7Z" stroke="#474747" stroke-width="6" stroke-miterlimit="10" stroke-linecap="round" stroke-linejoin="round"/>
<path d="M294.4 370L360.1 666.9L409.8 656.9L358.4 448.3C349.5 413.8 325.8 385.4 294.4 370Z" fill="#E7EFF1"/>
<path d="M409.9 656.9L335.2 671.9L273.1 362C315 373.4 347.5 406.4 358.5 448.4L409.9 656.9Z" stroke="#474747" stroke-width="6" stroke-miterlimit="10" stroke-linecap="round" stroke-linejoin="round"/>
<path d="M445.8 601.8L460.1 601.3C463.1 601.2 465 599 464.6 596L462.6 581.8L476.9 581.3C479.9 581.2 481.8 579 481.4 576L479.4 561.8L493.7 561.3C496.7 561.2 498.6 559 498.2 556L496.2 541.8L510.5 541.3C513.5 541.2 515.4 539 515 536L513 521.8L527.3 521.3C530.3 521.2 532.2 519 531.8 516L529.8 501.8L545.4 500.3C548.8 500 550.5 496.9 549.1 493.4L535.7 459.9L532.1 486.7L518.3 487.2C515 487.3 512.9 489.8 513.4 493L515.3 506.7L501.5 507.2C498.2 507.3 496.1 509.8 496.6 513L498.5 526.7L484.7 527.2C481.4 527.3 479.3 529.8 479.8 533L481.7 546.7L467.9 547.2C464.6 547.3 462.5 549.8 463 553L464.9 566.7L451.1 567.2C447.8 567.3 445.7 569.8 446.2 573L448.1 586.7L428.6 587.4L409.9 609.7L433.3 629.3L445.8 601.8Z" fill="#BCC6C9"/>
<path d="M445.8 601.8L460.1 601.3C463.1 601.2 465 599 464.6 596L462.6 581.8L476.9 581.3C479.9 581.2 481.8 579 481.4 576L479.4 561.8L493.7 561.3C496.7 561.2 498.6 559 498.2 556L496.2 541.8L510.5 541.3C513.5 541.2 515.4 539 515 536L513 521.8L527.3 521.3C530.3 521.2 532.2 519 531.8 516L529.8 501.8L545.4 500.3C548.8 500 550.5 496.9 549.1 493.4L535.7 459.9L532.1 486.7L518.3 487.2C515 487.3 512.9 489.8 513.4 493L515.3 506.7L501.5 507.2C498.2 507.3 496.1 509.8 496.6 513L498.5 526.7L484.7 527.2C481.4 527.3 479.3 529.8 479.8 533L481.7 546.7L467.9 547.2C464.6 547.3 462.5 549.8 463 553L464.9 566.7L451.1 567.2C447.8 567.3 445.7 569.8 446.2 573L448.1 586.7L428.6 587.4L409.9 609.7L433.3 629.3L445.8 601.8Z" stroke="#474747" stroke-width="6" stroke-miterlimit="10" stroke-linecap="round" stroke-linejoin="round"/>
<path d="M656.9 748.7H396.9C358.2 748.7 326.9 717.4 326.9 678.7C326.9 640 358.2 608.7 396.9 608.7H656.9C695.6 608.7 726.9 640 726.9 678.7C726.9 717.4 695.6 748.7 656.9 748.7Z" fill="#9ACF8D"/>
<path d="M656.9 732.7H396.9C361 732.7 331.4 705.6 327.4 670.7C327.1 673.3 326.9 676 326.9 678.7C326.9 717.4 358.2 748.7 396.9 748.7H656.9C695.6 748.7 726.9 717.4 726.9 678.7C726.9 676 726.7 673.3 726.4 670.7C722.5 705.6 692.9 732.7 656.9 732.7Z" fill="#85B578"/>
<path d="M656.9 608.7H396.9C358.2 608.7 326.9 640 326.9 678.7C326.9 681.2 327 683.8 327.3 686.2C331.1 651.1 360.8 623.7 396.9 623.7H656.9C693 623.7 722.7 651.1 726.5 686.2C726.8 683.7 726.9 681.2 726.9 678.7C726.9 640.1 695.6 608.7 656.9 608.7Z" fill="#BFE8B3"/>
<path d="M656.9 748.7H396.9C358.2 748.7 326.9 717.4 326.9 678.7C326.9 640 358.2 608.7 396.9 608.7H656.9C695.6 608.7 726.9 640 726.9 678.7C726.9 717.4 695.6 748.7 656.9 748.7Z" stroke="#474747" stroke-width="6" stroke-miterlimit="10" stroke-linecap="round" stroke-linejoin="round"/>
<path d="M355.8 601.7L386.6 593.2" stroke="#474747" stroke-width="3" stroke-miterlimit="10" stroke-linecap="round" stroke-linejoin="round"/>
<path d="M401.2 703.9C415.118 703.9 426.4 692.618 426.4 678.7C426.4 664.782 415.118 653.5 401.2 653.5C387.282 653.5 376 664.782 376 678.7C376 692.618 387.282 703.9 401.2 703.9Z" fill="#D2DDE1"/>
<path opacity="0.2" d="M380.8 715.6C367.8 708.4 359 694.6 359 678.7C359 669.3 362.1 660.6 367.4 653.5" stroke="#474747" stroke-width="6" stroke-miterlimit="10" stroke-linecap="round" stroke-linejoin="round"/>
<path d="M401.2 703.9C415.118 703.9 426.4 692.618 426.4 678.7C426.4 664.782 415.118 653.5 401.2 653.5C387.282 653.5 376 664.782 376 678.7C376 692.618 387.282 703.9 401.2 703.9Z" stroke="#474747" stroke-width="6" stroke-miterlimit="10" stroke-linecap="round" stroke-linejoin="round"/>
<path d="M435.9 488.8C435.9 488.8 420.6 527.5 416.3 548.8" stroke="#474747" stroke-width="3" stroke-miterlimit="10" stroke-linecap="round" stroke-linejoin="round"/>
<path d="M401.2 662.7V694.8" stroke="#474747" stroke-width="6" stroke-miterlimit="10" stroke-linecap="round" stroke-linejoin="round"/>
<path d="M417.2 678.7H385.1" stroke="#474747" stroke-width="6" stroke-miterlimit="10" stroke-linecap="round" stroke-linejoin="round"/>
<path d="M332.4 541.5L342.5 587.2" stroke="#474747" stroke-width="3" stroke-miterlimit="10" stroke-linecap="round" stroke-linejoin="round"/>
<path d="M300.2 395.9L328.6 524.3" stroke="#474747" stroke-width="3" stroke-miterlimit="10" stroke-linecap="round" stroke-linejoin="round"/>
</g>
<defs>
<clipPath id="clip0_2_253">
<rect width="1000" height="1000" fill="white"/>
</clipPath>
</defs>
</svg>
